<svg id="Layer_1" data-name="Layer 1" xmlns="http://www.w3.org/2000/svg" viewBox="0 0 962.71 840.04"><defs><style>.cls-1{fill:#30a2ff;}</style></defs><path class="cls-1" d="M387,387a15,15,0,0,1,21.22,0L510.59,489.39l91.75,91.74,65-65-76.58-76.58h0L398,246.74,209.64,435.08V564.42Z" transform="translate(-18.65 -79.98)"/><polygon class="cls-1" points="197.45 520.41 364.95 680.47 364.95 497.3 292.76 425.11 197.45 520.41"/><polygon class="cls-1" points="765.22 319.63 597.73 159.57 597.73 342.74 669.92 414.93 765.22 319.63"/><path class="cls-1" d="M978.2,488.22,749.3,91.76A23.56,23.56,0,0,0,728.9,80H271.1a23.56,23.56,0,0,0-20.4,11.78L21.8,488.22a23.55,23.55,0,0,0,0,23.56L250.7,908.24A23.56,23.56,0,0,0,271.1,920H728.9a23.56,23.56,0,0,0,20.4-11.78L978.2,511.78A23.55,23.55,0,0,0,978.2,488.22ZM820.32,571.13a15,15,0,0,1-4.39,10.6L612.6,785.07a15,15,0,0,1-21.22,0L413.59,607.28V795.52a15,15,0,0,1-25.36,10.85l-204-194.89-.12-.13-.12-.11c-.15-.15-.27-.3-.41-.45s-.34-.36-.5-.55-.35-.45-.52-.68l-.38-.51c-.18-.27-.34-.54-.5-.82s-.18-.29-.27-.45-.31-.61-.45-.92c-.06-.14-.13-.27-.19-.41-.14-.33-.25-.66-.36-1-.05-.14-.11-.28-.15-.42-.1-.33-.18-.66-.26-1,0-.15-.08-.3-.11-.45-.07-.34-.11-.68-.16-1,0-.15-.05-.29-.06-.44-.05-.48-.07-1-.08-1.45V428.86a15,15,0,0,1,4.4-10.6L387.37,214.92a15,15,0,0,1,21.21,0L586.37,392.71V204.47a15,15,0,0,1,25.37-10.85l204,194.89.12.13.12.11c.14.14.26.3.4.44s.35.37.51.57.35.44.52.67l.37.51c.19.27.35.55.52.83l.25.43c.17.31.32.63.46.95l.19.39c.14.33.25.67.37,1,0,.13.09.26.14.39.1.34.18.69.26,1,0,.14.08.27.11.41.07.36.12.72.16,1.08l.06.4a14.86,14.86,0,0,1,.07,1.49Z" transform="translate(-18.65 -79.98)"/><path class="cls-1" d="M612.94,613a15,15,0,0,1-21.21,0L489.38,510.6l-91.75-91.74-65,65,76.58,76.58h0L602,753.25,790.32,564.91V435.57Z" transform="translate(-18.65 -79.98)"/></svg>